<svg xmlns="http://www.w3.org/2000/svg" width="490" height="228" viewBox="0 0 490 228" role="img" aria-label="Soo Solutions"><title>Soo Solutions</title><defs>
    <linearGradient id="bg" x1="0" y1="0" x2="1" y2="1"><stop offset="0" stop-color="#3f7df7"/><stop offset="1" stop-color="#1b46c2"/></linearGradient>
    <radialGradient id="hole" cx="0.5" cy="0.5" r="0.5"><stop offset="0" stop-color="#0b1736"/><stop offset="1" stop-color="#16357f"/></radialGradient>
  </defs><g transform="translate(44 44) scale(1.4)">
    <rect width="100" height="100" rx="24" fill="url(#bg)"/>
    <circle cx="50" cy="50" r="34" fill="none" stroke="#ffffff" stroke-opacity="0.18" stroke-width="2"/>
    <g fill="#ffffff" stroke="#1b46c2" stroke-width="0.6" stroke-linejoin="round"><path d="M61 50 L81 50 L65.5 76.85 Z"/><path d="M55.5 59.53 L65.5 76.85 L34.5 76.85 Z"/><path d="M44.5 59.53 L34.5 76.85 L19 50 Z"/><path d="M39 50 L19 50 L34.5 23.15 Z"/><path d="M44.5 40.47 L34.5 23.15 L65.5 23.15 Z"/><path d="M55.5 40.47 L65.5 23.15 L81 50 Z"/></g>
    <circle cx="50" cy="50" r="9.5" fill="url(#hole)"/>
    <circle cx="45.5" cy="45.5" r="2.2" fill="#ffffff" fill-opacity="0.8"/>
  </g><path d="M248.90 129.40Q240.80 129.40 234.60 126.50Q228.40 123.60 224.90 118.20Q221.40 112.80 221.40 105.20L221.40 102.40L234.40 102.40L234.40 105.20Q234.40 111.50 238.30 114.65Q242.20 117.80 248.90 117.80Q255.70 117.80 259.05 115.10Q262.40 112.40 262.40 108.20Q262.40 105.30 260.75 103.50Q259.10 101.70 255.95 100.55Q252.80 99.40 248.30 98.40L246 97.90Q238.80 96.30 233.65 93.85Q228.50 91.40 225.75 87.40Q223 83.40 223 77Q223 70.60 226.05 66.05Q229.10 61.50 234.65 59.05Q240.20 56.60 247.70 56.60Q255.20 56.60 261.05 59.15Q266.90 61.70 270.25 66.75Q273.60 71.80 273.60 79.40L273.60 82.40L260.60 82.40L260.60 79.40Q260.60 75.40 259.05 72.95Q257.50 70.50 254.60 69.35Q251.70 68.20 247.70 68.20Q241.70 68.20 238.85 70.45Q236 72.70 236 76.60Q236 79.20 237.35 81Q238.70 82.80 241.40 84Q244.10 85.20 248.30 86.10L250.60 86.60Q258.10 88.20 263.65 90.70Q269.20 93.20 272.30 97.30Q275.40 101.40 275.40 107.80Q275.40 114.20 272.15 119.05Q268.90 123.90 262.95 126.65Q257 129.40 248.90 129.40" fill="#1c2540"/><circle cx="306.1" cy="101.5" r="24.5" fill="none" stroke="#2563eb" stroke-width="8.33"/><circle cx="306.1" cy="101.5" r="7.84" fill="#2563eb"/><circle cx="358.1" cy="101.5" r="24.5" fill="none" stroke="#2563eb" stroke-width="8.33"/><circle cx="358.1" cy="101.5" r="7.84" fill="#2563eb"/><path d="M227.61 166.43Q225.13 166.43 223.22 165.55Q221.32 164.67 220.23 162.99Q219.15 161.32 219.15 158.90L219.15 158.09L222.84 158.09L222.84 158.90Q222.84 161.04 224.14 162.09Q225.44 163.15 227.61 163.15Q229.81 163.15 230.93 162.25Q232.04 161.35 232.04 159.92Q232.04 158.96 231.52 158.36Q230.99 157.75 229.98 157.38Q228.97 157.01 227.55 156.67L226.62 156.48Q224.48 155.99 222.91 155.23Q221.35 154.47 220.51 153.26Q219.67 152.05 219.67 150.10Q219.67 148.14 220.60 146.75Q221.53 145.35 223.24 144.61Q224.94 143.87 227.24 143.87Q229.53 143.87 231.33 144.64Q233.13 145.42 234.17 146.97Q235.20 148.52 235.20 150.84L235.20 151.86L231.52 151.86L231.52 150.84Q231.52 149.51 230.99 148.70Q230.46 147.90 229.50 147.52Q228.54 147.15 227.24 147.15Q225.32 147.15 224.32 147.90Q223.33 148.64 223.33 150Q223.33 150.87 223.78 151.48Q224.23 152.08 225.11 152.47Q226 152.86 227.33 153.13L228.26 153.35Q230.49 153.85 232.17 154.61Q233.84 155.37 234.79 156.61Q235.73 157.85 235.73 159.83Q235.73 161.78 234.72 163.27Q233.72 164.76 231.90 165.60Q230.09 166.43 227.61 166.43" fill="#1c2540"/><path d="M255.30 166.43Q251.27 166.43 248.86 164.19Q246.46 161.94 246.46 157.72L246.46 152.58Q246.46 148.36 248.86 146.11Q251.27 143.87 255.30 143.87Q259.36 143.87 261.74 146.11Q264.13 148.36 264.13 152.58L264.13 157.72Q264.13 161.94 261.74 164.19Q259.36 166.43 255.30 166.43M255.30 163.09Q257.71 163.09 259.06 161.68Q260.41 160.26 260.41 157.85L260.41 152.45Q260.41 150.03 259.06 148.62Q257.71 147.21 255.30 147.21Q252.91 147.21 251.56 148.62Q250.21 150.03 250.21 152.45L250.21 157.85Q250.21 160.26 251.56 161.68Q252.91 163.09 255.30 163.09" fill="#2563eb"/><path d="M289.80 166L275.88 166L275.88 144.30L279.63 144.30L279.63 162.62L289.80 162.62" fill="#1c2540"/><path d="M308.96 166.43Q306.36 166.43 304.48 165.49Q302.61 164.54 301.60 162.75Q300.59 160.95 300.59 158.47L300.59 144.30L304.31 144.30L304.31 158.56Q304.31 160.73 305.52 161.91Q306.73 163.09 308.96 163.09Q311.22 163.09 312.42 161.91Q313.61 160.73 313.61 158.56L313.61 144.30L317.33 144.30L317.33 158.47Q317.33 160.95 316.34 162.75Q315.35 164.54 313.46 165.49Q311.56 166.43 308.96 166.43" fill="#1c2540"/><path d="M338.35 166L334.63 166L334.63 147.68L328.15 147.68L328.15 144.30L344.83 144.30L344.83 147.68L338.35 147.68" fill="#1c2540"/><path d="M359.49 166L355.74 166L355.74 144.30L359.49 144.30" fill="#1c2540"/><path d="M380.08 166.43Q376.05 166.43 373.65 164.19Q371.25 161.94 371.25 157.72L371.25 152.58Q371.25 148.36 373.65 146.11Q376.05 143.87 380.08 143.87Q384.14 143.87 386.53 146.11Q388.92 148.36 388.92 152.58L388.92 157.72Q388.92 161.94 386.53 164.19Q384.14 166.43 380.08 166.43M380.08 163.09Q382.50 163.09 383.85 161.68Q385.20 160.26 385.20 157.85L385.20 152.45Q385.20 150.03 383.85 148.62Q382.50 147.21 380.08 147.21Q377.69 147.21 376.34 148.62Q375 150.03 375 152.45L375 157.85Q375 160.26 376.34 161.68Q377.69 163.09 380.08 163.09" fill="#2563eb"/><path d="M404.36 166L400.67 166L400.67 144.30L407.80 144.30L412.91 163.49L413.41 163.49L413.41 144.30L417.10 144.30L417.10 166L410 166L404.88 146.81L404.36 146.81" fill="#1c2540"/><path d="M436.85 166.43Q434.37 166.43 432.46 165.55Q430.55 164.67 429.47 162.99Q428.38 161.32 428.38 158.90L428.38 158.09L432.07 158.09L432.07 158.90Q432.07 161.04 433.37 162.09Q434.68 163.15 436.85 163.15Q439.05 163.15 440.16 162.25Q441.28 161.35 441.28 159.92Q441.28 158.96 440.75 158.36Q440.22 157.75 439.22 157.38Q438.21 157.01 436.78 156.67L435.85 156.48Q433.71 155.99 432.15 155.23Q430.58 154.47 429.75 153.26Q428.91 152.05 428.91 150.10Q428.91 148.14 429.84 146.75Q430.77 145.35 432.47 144.61Q434.18 143.87 436.47 143.87Q438.77 143.87 440.56 144.64Q442.36 145.42 443.40 146.97Q444.44 148.52 444.44 150.84L444.44 151.86L440.75 151.86L440.75 150.84Q440.75 149.51 440.22 148.70Q439.70 147.90 438.74 147.52Q437.78 147.15 436.47 147.15Q434.55 147.15 433.56 147.90Q432.57 148.64 432.57 150Q432.57 150.87 433.02 151.48Q433.47 152.08 434.35 152.47Q435.23 152.86 436.57 153.13L437.50 153.35Q439.73 153.85 441.40 154.61Q443.08 155.37 444.02 156.61Q444.97 157.85 444.97 159.83Q444.97 161.78 443.96 163.27Q442.95 164.76 441.14 165.60Q439.32 166.43 436.85 166.43" fill="#1c2540"/></svg>